<?xml version="1.0" encoding="UTF-8" standalone="no"?>
<svg
   xmlns:dc="http://purl.org/dc/elements/1.1/"
   xmlns:cc="http://creativecommons.org/ns#"
   xmlns:rdf="http://www.w3.org/1999/02/22-rdf-syntax-ns#"
   xmlns:svg="http://www.w3.org/2000/svg"
   xmlns="http://www.w3.org/2000/svg"
   viewBox="0 0 513 142.99898"
   height="142.99898"
   width="513"
   version="1.1"
   id="svg2">
  <metadata
     id="metadata8">
    <rdf:RDF>
      <cc:Work
         rdf:about="">
        <dc:format>image/svg+xml</dc:format>
        <dc:type
           rdf:resource="http://purl.org/dc/dcmitype/StillImage" />
        <dc:title></dc:title>
      </cc:Work>
    </rdf:RDF>
  </metadata>
  <defs
     id="defs6" />
  <path
     id="path4138"
     d="m 0,142.39168 c 0,-0.33402 5.9625,-11.1305 13.25,-23.99217 L 26.5,95.01464 53.25,95.00664 C 67.9625,95.0025 80,94.69695 80,94.3278 80,93.65319 63.61507,64.37973 57.353945,53.86817 55.509275,50.77122 54,47.89525 54,47.47711 54,47.05897 58.102854,39.46783 63.117453,30.60792 68.132052,21.748 74.071586,11.23648 76.316416,7.2489801 78.561247,3.2614801 80.645893,-5.5992791e-4 80.948963,7.2091296e-8 81.25203,5.6007209e-4 82.81192,2.3630601 84.41538,5.2500001 86.01884,8.1369401 92.01042,18.74414 97.73001,28.82157 l 10.39926,18.32259 -12.81464,22.64418 c -7.04804,12.4543 -12.96013,23.22163 -13.13795,23.92741 -0.25703,1.02011 5.10023,1.28323 26.12755,1.28323 19.96463,0 26.69429,0.30652 27.44351,1.25 C 136.96159,97.77756 162,141.97856 162,142.59282 c 0,0.24107 -12.20868,0.31857 -27.1304,0.17223 l -27.1304,-0.26607 -9.39767,-16.5 c -5.16872,-9.075 -11.05474,-19.5375 -13.08004,-23.25 -2.0253,-3.7125 -3.94933,-6.75 -4.275626,-6.75 -0.326295,0 -6.581835,10.575 -13.901199,23.5 l -13.307935,23.5 -26.888365,0 C 12.099764,142.99898 0,142.72569 0,142.39168 Z m 182,-22.8927 0,-23.5 15.38108,0 15.38107,0 -0.14435,3.75 -0.14436,3.75 -11.23672,0.28275 -11.23672,0.28275 0,4.96725 0,4.96725 10.5,0 10.5,0 0,4 0,4 -10.54772,0 -10.54771,0 0.29771,6.25 0.29772,6.25 11.25,-0.0223 11.25,-0.0223 0,4.27229 0,4.27229 -15.5,0 -15.5,0 0,-23.5 z m 38.69295,22.85961 C 220.31183,141.97747 220,131.39065 220,118.83231 l 0,-22.83333 4.5,0 4.5,0 0,19 c 0,11.91667 0.37281,19.0466 1,19.125 0.55,0.0688 5.1625,0.18125 10.25,0.25 l 9.25,0.125 0,4 0,4 -14.05705,0.27628 c -7.73138,0.15195 -14.36888,-0.0356 -14.75,-0.41667 z M 256,119.49898 l 0,-23.5 15,0 15,0 0,4 0,4 -11,0 -11,0 0,5 0,5 10.5,0 10.5,0 0,4 0,4 -10.5,0 -10.5,0 0,6 c 0,3.3 0.45,6.05625 1,6.125 0.55,0.0688 5.6125,0.18125 11.25,0.25 l 10.25,0.125 0.3075,4.25 0.3075,4.25 -15.5575,0 -15.5575,0 0,-23.5 z m 49,22.83113 c -7.52023,-3.08982 -12.08304,-11.44081 -12.11697,-22.17681 -0.0303,-9.59175 1.7541,-14.83057 6.75864,-19.84247 8.63715,-8.64985 22.65675,-6.56442 27.42198,4.07906 2.01061,4.49083 1.75789,4.89766 -3.67698,5.91923 -2.60897,0.49039 -3.29009,0.19724 -4.20446,-1.80958 -2.62065,-5.7517 -9.62474,-6.85176 -13.99646,-2.19829 -4.20156,4.47237 -5.01618,17.07898 -1.54555,23.91809 2.81415,5.54544 8.90611,6.38717 13.43672,1.85656 1.6077,-1.60769 2.92308,-3.63269 2.92308,-4.5 0,-0.8673 0.60785,-1.57692 1.35078,-1.57692 2.02894,0 7.65328,2.1017 7.62105,2.84783 -0.0898,2.0791 -4.96246,9.80264 -7.27233,11.5272 -2.75887,2.0598 -13.41044,3.30748 -16.6995,1.9561 z m 40.71426,0.0498 C 345.32142,141.98706 345,133.19065 345,122.83231 l 0,-18.83333 -6,0 -6,0 0,-4 0,-4 16.5,0 16.5,0 0,4 0,4 -5.97841,0 -5.9784,0 -0.2716,19.25 -0.27159,19.25 -3.53574,0.29759 c -1.94466,0.16368 -3.85716,-0.0238 -4.25,-0.41666 z m 26,0 C 371.32142,141.98706 371,131.39065 371,118.83231 l 0,-22.83333 12.54966,0 c 9.26163,0 13.31822,0.39744 15.48307,1.51693 8.35854,4.32236 7.9075,19.52096 -0.68586,23.1115 l -3.5203,1.47087 2.64869,2.64869 c 2.4368,2.4368 8.49662,12.36502 10.07222,16.50201 0.57297,1.50442 0.0417,1.75 -3.7855,1.75 -5.15065,0 -5.60495,-0.41979 -11.61589,-10.73346 -4.26971,-7.32605 -6.37304,-9.26654 -10.04414,-9.26654 -1.88103,0 -2.05047,0.7134 -2.31574,9.75 l -0.28621,9.75 -3.53574,0.29759 c -1.94466,0.16368 -3.85716,-0.0238 -4.25,-0.41666 z M 394.8,113.79898 c 0.66,-0.66 1.2,-2.595 1.2,-4.3 0,-4.5658 -1.56266,-5.5 -9.2,-5.5 l -6.8,0 0,5.5 0,5.5 6.8,0 c 3.95556,0 7.30196,-0.50196 8,-1.2 z m 18.2,5.7 0,-23.5 4,0 4,0 0,23.5 0,23.5 -4,0 -4,0 0,-23.5 z m 25.17963,21.81824 c -6.61885,-3.26164 -10.40365,-11.14835 -10.39932,-21.66992 0.004,-8.58559 1.74019,-14.11181 5.87195,-18.68518 5.46062,-6.04425 13.29682,-7.53115 21.07708,-3.99932 4.22618,1.91846 8.25962,6.91417 8.26692,10.23918 0.004,1.88652 -7.2459,4.5189 -7.81287,2.83673 -0.83207,-2.46874 -4.42362,-5.88321 -6.82132,-6.48499 -8.51699,-2.13763 -14.13071,8.60877 -11.391,21.8059 1.32288,6.37226 4.45486,9.63936 9.24071,9.63936 3.22681,0 8.78822,-4.69751 8.78822,-7.42308 0,-1.84851 1.53636,-1.98311 5.77399,-0.50586 2.92492,1.01963 3.02076,1.22368 1.99627,4.25 -2.65939,7.85574 -8.06875,11.69539 -16.42139,11.65617 -2.66688,-0.0125 -6.34304,-0.75907 -8.16924,-1.65899 z M 293.68523,84.94955 c -2.09813,-0.36123 -5.02313,-1.5502 -6.5,-2.64213 -3.03981,-2.24751 -6.06549,-7.6994 -6.1372,-11.05844 -0.0418,-1.96005 0.45875,-2.25 3.88458,-2.25 2.92764,0 4.08053,0.46605 4.51144,1.82371 1.25103,3.94164 4.48559,6.17629 8.93992,6.17629 5.19773,0 7.92419,-2.44087 7.44099,-6.66157 -0.29856,-2.60781 -1.00708,-3.0588 -8.72029,-5.55065 -9.24145,-2.98557 -12.48388,-5.37674 -14.15434,-10.43829 -3.35296,-10.15956 5.73006,-18.54387 18.22718,-16.82508 5.85786,0.80566 10.22045,4.12138 11.82684,8.98877 1.46382,4.43541 0.72719,5.48682 -3.84413,5.48682 -3.19827,0 -3.87749,-0.41263 -4.82909,-2.9337 -0.83032,-2.19977 -1.951,-3.09196 -4.47964,-3.56634 C 295.03919,44.59615 291,46.35431 291,49.35178 c 0,3.13382 1.27638,4.05473 8.4868,6.12326 8.2986,2.3807 11.28742,4.10569 13.55368,7.82249 3.84731,6.30979 1.50013,16.32615 -4.65358,19.85867 -3.43224,1.97027 -9.42688,2.70152 -14.70167,1.79335 z M 434.5,84.97827 c -5.49133,-0.78463 -9.02752,-3.37182 -11.45089,-8.37785 -3.17069,-6.54975 -2.8316,-7.60144 2.45089,-7.60144 3.39216,0 4.5,0.38047 4.5,1.54545 0,0.85 1.10455,2.65 2.45455,4 C 437.14166,79.23155 447,76.84421 447,71.02203 c 0,-2.42401 -3.05854,-4.47995 -8.99438,-6.046 -11.53371,-3.04293 -15.59006,-7.54285 -14.74328,-16.35549 0.6136,-6.38586 4.56591,-10.13519 11.72125,-11.1193 C 445.07079,36.11389 454,41.61717 454,49.22149 c 0,2.57659 -0.29112,2.77749 -4.02475,2.77749 -3.38058,0 -4.17797,-0.403 -4.98207,-2.51793 -1.64711,-4.33225 -8.16664,-5.7817 -12.00943,-2.67 -3.99701,3.23659 -1.97962,5.69203 7.18383,8.74374 12.68252,4.22367 16.67349,9.40211 14.5887,18.92942 -1.78764,8.16934 -9.29746,12.05992 -20.25628,10.49406 z M 182,61.49898 l 0,-23.5 6.29838,0 6.29838,0 3.34347,14.25 c 1.83892,7.8375 3.63319,14.58105 3.98729,14.98566 0.35409,0.40461 2.20275,-6.0078 4.10814,-14.24981 L 209.5,37.99937 l 6.76843,-2e-4 6.76843,-1.9e-4 -0.26843,23.25 -0.26843,23.25 -4,0 -4,0 0,-16.66864 c 0,-9.16775 -0.17788,-16.48988 -0.39528,-16.27139 -0.2174,0.21849 -2.05858,7.71938 -4.0915,16.66864 l -3.69623,16.27139 -4.07416,0.30338 c -4.78531,0.35633 -4.00024,2.01792 -8.64797,-18.30338 l -3.43069,-15 -0.0821,16.75 -0.0821,16.75 -4,0 -4,0 0,-23.5 z m 49,0 0,-23.5 4,0 4,0 0,23.5 0,23.5 -4,0 -4,0 0,-23.5 z m 25.66667,22.83333 C 256.3,83.96565 256,75.19065 256,64.83231 l 0,-18.83333 -6,0 -6,0 0,-4 0,-4 17,0 17,0 0,4 0,4 -6.5,0 -6.5,0 0,19.5 0,19.5 -3.83333,0 c -2.10834,0 -4.13334,-0.3 -4.5,-0.66667 z m 70.89242,-2.4156 c -1.96929,-1.72905 -3.95776,-4.69251 -4.52922,-6.75 -0.5603,-2.01725 -1.02123,-11.20523 -1.02429,-20.41773 l -0.006,-16.75 4.5,0 4.5,0 0,17.31144 c 0,16.03944 0.14982,17.47225 2.03896,19.5 2.7063,2.90487 9.14325,3.00635 11.96104,0.18856 1.84762,-1.84762 2,-3.33333 2,-19.5 l 0,-17.5 4.62033,0 4.62033,0 -0.40875,18.75 c -0.34798,15.96222 -0.68339,19.21306 -2.25587,21.86446 -2.91596,4.91664 -6.35397,6.38554 -14.94554,6.38554 -7.0199,0 -7.8121,-0.22055 -11.07141,-3.08227 z M 365,61.59709 l 0,-23.59811 12.09571,0 c 13.642,0 16.75646,1.06136 19.38813,6.60719 2.12501,4.47813 1.89409,7.5568 -0.87259,11.63374 l -2.38876,3.52003 3.13876,3.13875 c 2.65176,2.65176 3.13875,3.88804 3.13875,7.96813 0,5.57008 -1.73905,9.38072 -5.41544,11.86644 -2.05568,1.3899 -5.29593,1.82059 -15.83456,2.10472 L 365,85.19521 365,61.59709 Z m 24.71915,12.7713 c 3.18345,-4.35363 0.43518,-9.28566 -5.29058,-9.49441 -1.88571,-0.0688 -5.11607,-0.18125 -7.17857,-0.25 l -3.75,-0.125 -0.30157,6.39824 -0.30156,6.39824 7.77071,-0.5877 c 5.7719,-0.43653 8.10018,-1.03827 9.05157,-2.33937 z M 386,55.71107 c 1.58914,-0.79993 2.61741,-2.27397 2.82226,-4.04573 0.52499,-4.54079 -1.2518,-5.66636 -8.9447,-5.66636 l -6.87756,0 0,4.83333 c 0,2.65834 0.3,5.13334 0.66667,5.5 1.13593,1.13594 9.69944,0.70458 12.33333,-0.62124 z m 21,5.78791 0,-23.5 4,0 4,0 0,23.5 0,23.5 -4,0 -4,0 0,-23.5 z m 55.66667,22.83333 C 462.3,83.96565 462,73.39065 462,60.83231 l 0,-22.83333 4.5,0 4.5,0 0,9 0,9 8.5,0 8.5,0 0,-9 0,-9 4,0 4,0 0,23.5 0,23.5 -3.96502,0 -3.96501,0 -0.28499,-10.25 -0.28498,-10.25 -8,0 -8,0 -0.28498,10.25 -0.28499,10.25 -3.79835,0 c -2.08909,0 -4.09835,-0.3 -4.46501,-0.66667 z M 505,61.49898 l 0,-23.5 4,0 4,0 0,23.5 0,23.5 -4,0 -4,0 0,-23.5 z"
     style="fill:#000000" />
</svg>
