<?xml version="1.0" encoding="UTF-8" standalone="no"?>
<svg
   xmlns:dc="http://purl.org/dc/elements/1.1/"
   xmlns:cc="http://creativecommons.org/ns#"
   xmlns:rdf="http://www.w3.org/1999/02/22-rdf-syntax-ns#"
   xmlns:svg="http://www.w3.org/2000/svg"
   xmlns="http://www.w3.org/2000/svg"
   viewBox="0 0 284.95056 281.79416"
   height="281.79416"
   width="284.95056"
   version="1.1"
   id="svg2">
  <metadata
     id="metadata8">
    <rdf:RDF>
      <cc:Work
         rdf:about="">
        <dc:format>image/svg+xml</dc:format>
        <dc:type
           rdf:resource="http://purl.org/dc/dcmitype/StillImage" />
        <dc:title></dc:title>
      </cc:Work>
    </rdf:RDF>
  </metadata>
  <defs
     id="defs6" />
  <path
     id="path4138"
     d="m 32.45058,267.2721 0,-14.52207 19.02746,0 19.02745,0 -0.27745,14.25 -0.27746,14.25 -18.75,0.27207 -18.75,0.27206 0,-14.52206 z m 179.99999,-0.0221 0,-14.5 18.5,0 18.5,0 0,14.5 0,14.5 -18.5,0 -18.5,0 0,-14.5 z M 4.8036696,245.82984 c -6.8758402,-4.20609 -6.2419502,-14.55699 1.0788,-17.6158 3.01651,-1.26038 21.9034504,-1.46349 135.7859804,-1.46027 130.44625,0.004 132.32757,0.0315 135.55705,2.00046 5.90208,3.5985 6.68574,11.33538 1.62931,16.08587 l -2.56513,2.40993 -134.16956,0.25242 C 11.21393,247.74873 7.8740396,247.70805 4.8036696,245.82984 Z M 20.97585,217.50003 c 1.12649,-3.41024 18.80757,-61.51722 32.10206,-105.50001 l 2.4937,-8.25 85.39647,0 85.39649,0 3.98265,12.75 c 2.19046,7.0125 10.11062,32.91794 17.60034,57.56764 7.48973,24.6497 13.86503,45.4622 14.16734,46.25 0.47518,1.23832 -15.91707,1.43237 -120.99664,1.43237 l -121.54629,0 1.40388,-4.25 z m 171.47472,-10.94066 c 0,-0.65487 -4.725,-18.67483 -10.5,-40.04436 -5.775,-21.36953 -10.5,-39.05873 -10.5,-39.30934 0,-0.2506 -13.61464,-0.45564 -30.25475,-0.45564 l -30.25475,0 -10.75874,39.75 c -5.917298,21.8625 -10.75265,40.0875 -10.74524,40.5 0.007,0.4125 23.18848,0.75 51.51348,0.75 39.16448,0 51.5,-0.28519 51.5,-1.19066 z m 49.99721,-76.82096 c -0.66125,-2.75639 -0.90708,-5.78089 -0.54629,-6.72109 0.36079,-0.94019 7.4281,-12.66379 15.70513,-26.052445 8.27703,-13.388643 14.89048,-24.475246 14.69655,-24.636894 -0.19393,-0.161647 -10.7026,-4.234345 -23.3526,-9.050441 -12.65,-4.816095 -24.73751,-9.448881 -26.86114,-10.295079 -3.73062,-1.486533 -3.84332,-1.671376 -3.33408,-5.46808 0.28988,-2.161246 0.72514,-4.127619 0.96724,-4.369718 0.75905,-0.759046 65.22798,24.433237 65.22798,25.488893 0,1.327592 -39.81134,66.052014 -40.65026,66.088324 -0.35764,0.0155 -1.19128,-2.22708 -1.85253,-4.98347 z M 202.95057,69.314907 c -4.4,-1.791408 -17.225,-6.761477 -28.5,-11.044598 -11.275,-4.283122 -20.82283,-8.072698 -21.21739,-8.421282 -0.39456,-0.348583 5.83997,-8.950963 13.85452,-19.116398 8.01455,-10.165435 15.12887,-19.268868 15.8096,-20.22985 1.14838,-1.6211378 2.41285,-1.3000098 17.52054,4.449539 l 16.28284,6.196778 -0.58751,6.550461 c -0.32313,3.602754 -1.14365,15.212961 -1.82337,25.800461 -0.77965,12.143743 -1.62411,19.217144 -2.28755,19.160997 -0.57842,-0.04895 -4.65168,-1.5547 -9.05168,-3.346108 z m -1.74236,-58.371138 c -5.35829,-2.0315628 -9.74579,-4.0527378 -9.75,-4.4914998 -0.0163,-1.703765 5.39885,-5.68788346 8.52908,-6.27511746 4.29665,-0.806056 8.2711,1.15554996 11.22157,5.53844546 2.29614,3.410899 2.69994,8.1206288 0.74171,8.6510528 -0.55,0.148978 -5.38406,-1.391318 -10.74236,-3.422881 z"
     style="fill:#000000" />
</svg>
